:SAMPLES-PER-SECOND 30
:FULLY-SPECIFIED
:DEGREES
368
root  -27.2018 37.5814 5.9454 30.4146 83.0287 29.5803
RightUpLeg  -12.7478 9.75377 -12.8286
RightLeg  68.4045 3.61794 9.40921
RightFoot  -0.956315 -0.905628 9.88774
RightToes  -8.3237e-009 0 -3.6325e-017
Spine  16.715 -0.154283 -3.13056
Spine1  5.15886 -1.70833 -0.490555
HEad  -24.8577 9.25447 -6.38904
LeftShoulder1  -0.361155 4.43156 -32.8067
LeftArm  -6.28941 12.3189 -36.874
LeftForeArm  34.2529 -10.2167 -6.88718
LeftHand  -0.0746461 7.78031 -1.50188
RightShoulder  -0.859867 -5.99218 27.9522
RightArm  20.8469 -9.04133 42.4165
RightForeArm  0.387249 25.848 5.52858
RightHand  -0.292506 7.15491 -3.05352
LeftUpLeg  -9.99586 -1.50333 -12.5581
LeftLeg  128.725 -30.0358 -150.195
LeftFoot  -14.433 -0.107504 -7.94097
LeftToes  -1.18267e-011 3.61711e-011 9.57411e-011
369
root  -26.0427 37.8859 5.75577 18.4465 85.0774 17.7868
RightUpLeg  -16.6395 11.7674 -10.6702
RightLeg  67.4585 2.7079 6.51932
RightFoot  -1.36017 -0.619815 7.00259
RightToes  -8.3237e-009 0 -3.6325e-017
Spine  15.7883 -0.927551 -1.74485
Spine1  4.87133 -1.90304 -0.389671
HEad  -24.671 9.31294 -5.67184
LeftShoulder1  -0.33929 4.38419 -32.3758
LeftArm  -5.91143 12.8966 -38.4341
LeftForeArm  32.3115 -12.0641 -6.36798
LeftHand  -0.0768935 7.12406 -2.3181
RightShoulder  -0.92143 -6.13243 28.4818
RightArm  21.215 -10.3946 42.5575
RightForeArm  1.79917 27.1043 5.74364
RightHand  -0.282567 6.82549 -3.02804
LeftUpLeg  -7.82059 -2.80779 -10.4423
LeftLeg  131.04 -37.2597 -147.404
LeftFoot  -21.6415 0.00188374 -1.2689
LeftToes  -1.18267e-011 3.61711e-011 9.57411e-011
370
root  -24.8858 38.2148 5.49228 -16.2664 86.499 -16.5657
RightUpLeg  -19.5738 13.9908 -7.8938
RightLeg  63.3468 2.71758 5.33444
RightFoot  -1.94248 -0.563784 6.66807
RightToes  -8.3237e-009 0 -3.6325e-017
Spine  15.0279 -1.6611 0.145248
Spine1  5.06294 -2.25718 1.16796
HEad  -24.5622 9.04442 -5.00699
LeftShoulder1  -0.406179 4.54435 -32.8919
LeftArm  -3.53648 12.361 -39.3313
LeftForeArm  29.3534 -13.822 -6.30877
LeftHand  -0.0877504 7.3052 -2.65311
RightShoulder  -0.86392 -5.98398 28.2438
RightArm  23.0247 -11.473 42.9497
RightForeArm  0.0159694 26.8879 5.78779
RightHand  -0.382858 6.8983 -3.97163
LeftUpLeg  -4.28222 -4.02075 -7.76982
LeftLeg  130.743 -49.1119 -141.015
LeftFoot  -29.1064 0.805745 3.76881
LeftToes  -1.18267e-011 3.61711e-011 9.57411e-011
371
root  -23.844 38.2879 5.24956 -70.6415 86.4873 -70.9236
RightUpLeg  -22.3201 15.4478 -5.09803
RightLeg  57.6244 2.98209 4.58752
RightFoot  -3.8685 -0.422558 6.07411
RightToes  -8.3237e-009 0 -3.6325e-017
Spine  14.65 -2.5601 2.02644
Spine1  4.59285 -2.87074 2.58165
HEad  -24.0983 8.49894 -3.42064
LeftShoulder1  -0.37297 4.47103 -32.4213
LeftArm  -1.01316 11.9048 -40.7194
LeftForeArm  26.8582 -15.8541 -5.85053
LeftHand  -0.103138 6.8611 -4.71683
RightShoulder  -0.877285 -5.9923 28.6625
RightArm  23.4876 -13.3392 42.9808
RightForeArm  1.21576 26.6172 5.66176
RightHand  -0.257674 6.5169 -2.80185
LeftUpLeg  -1.30021 -4.69358 -4.93431
LeftLeg  116.059 -63.195 -121.011
LeftFoot  -36.1021 1.51637 6.2704
LeftToes  -1.18267e-011 3.61711e-011 9.57411e-011
372
root  -22.79 38.3936 5.04807 -104.07 85.2827 -104.512
RightUpLeg  -24.8492 16.7002 -3.56928
RightLeg  50.3917 3.58549 4.26861
RightFoot  -4.68231 -0.40221 6.35777
RightToes  -8.3237e-009 0 -3.6325e-017
Spine  14.1426 -3.02242 1.83651
Spine1  4.56793 -3.60765 4.24361
HEad  -24.1724 7.78937 -1.65204
LeftShoulder1  -0.417066 4.57887 -32.6551
LeftArm  2.75459 9.98044 -41.5219
LeftForeArm  23.7663 -17.4947 -5.61838
LeftHand  -0.0815436 6.44996 -4.47556
RightShoulder  -0.934232 -6.13486 28.9392
RightArm  24.5373 -15.3888 42.6996
RightForeArm  2.45589 26.3788 5.54145
RightHand  -0.11836 5.22697 -1.58066
LeftUpLeg  1.61638 -3.83831 -2.92772
LeftLeg  61.5295 -69.377 -61.8779
LeftFoot  -39.736 -0.277978 -2.09333
LeftToes  -1.18267e-011 3.61711e-011 9.57411e-011
373
root  -21.7083 38.4815 4.84485 -125.86 83.3504 -126.528
RightUpLeg  -26.5387 17.6509 -2.14672
RightLeg  41.8132 3.37412 2.9816
RightFoot  -4.90566 -0.436929 7.1671
RightToes  -8.3237e-009 0 -3.6325e-017
Spine  13.2901 -3.4384 1.11832
Spine1  5.04081 -4.49271 5.94379
HEad  -24.3379 6.54488 -0.0295994
LeftShoulder1  -0.388821 4.50906 -32.5435
LeftArm  5.43611 7.28872 -42.8605
LeftForeArm  22.0497 -18.2433 -5.54328
LeftHand  -0.081388 6.88704 -3.09243
RightShoulder  -0.950137 -6.16519 29.1364
RightArm  26.3656 -17.5714 42.2344
RightForeArm  0.916083 26.1794 5.57654
RightHand  -0.250692 6.17439 -2.82437
LeftUpLeg  2.98079 -1.93988 -1.57815
LeftLeg  22.2184 -55.3902 -19.978
LeftFoot  -37.7497 -1.36863 -7.19515
LeftToes  -1.18267e-011 3.61711e-011 9.57411e-011
